<?xml version="1.0" encoding="UTF-8" standalone="no"?>
<!DOCTYPE svg PUBLIC "-//W3C//DTD SVG 1.1//EN" "http://www.w3.org/Graphics/SVG/1.1/DTD/svg11.dtd">
<svg width="100%" height="100%" viewBox="0 0 232 233" version="1.1" xmlns="http://www.w3.org/2000/svg" xmlns:xlink="http://www.w3.org/1999/xlink" xml:space="preserve" xmlns:serif="http://www.serif.com/" style="fill-rule:evenodd;clip-rule:evenodd;stroke-linejoin:round;stroke-miterlimit:2;">
    <g transform="matrix(1.03587,0,0,1.01747,-13.4664,-1.01747)">
        <ellipse cx="124.5" cy="115.5" rx="111.5" ry="114.5" style="fill:white;"/>
    </g>
    <path d="M115.418,232.706C149.402,232.706 179.974,218.055 201.194,194.708L195.548,188.459C188.56,180.726 176.648,180.065 168.848,186.978L156.803,197.653C140.417,212.176 115.511,211.26 100.235,195.573L92.704,187.839C85.472,180.412 73.621,180.154 66.071,187.258L43.98,208.044C63.675,223.496 88.474,232.706 115.418,232.706ZM211.871,173.709L214.613,176.744C225.294,159.139 231.446,138.467 231.446,116.353C231.446,89.539 222.401,64.843 207.203,45.167C204.378,45.893 201.678,47.283 199.346,49.349L187.302,60.024C170.916,74.547 146.01,73.632 130.734,57.945L123.203,50.211C115.97,42.784 104.12,42.525 96.57,49.629L65.58,78.789L50.504,62.767L81.494,33.607C97.785,18.277 123.358,18.836 138.964,34.862L146.495,42.597C153.575,49.866 165.116,50.29 172.71,43.56L184.754,32.885C186.776,31.094 188.925,29.538 191.169,28.216C170.842,10.633 144.368,0 115.418,0C57.211,0 9.015,42.981 0.669,99.02C16.552,89.851 37.175,92.248 50.516,105.948L59.226,114.892C65.996,121.845 76.917,122.578 84.556,116.593L110.375,96.365C125.872,84.224 147.811,84.812 162.636,97.764L197.793,128.481L183.319,145.048L148.161,114.332C141.291,108.329 131.124,108.057 123.943,113.684L98.123,133.912C81.64,146.826 58.073,145.243 43.464,130.241L34.755,121.297C27.522,113.87 15.672,113.611 8.122,120.715L0,128.357C2.512,152.933 12.651,175.243 28.005,192.868L50.995,171.235C67.287,155.906 92.859,156.464 108.465,172.491L115.997,180.225C123.076,187.494 134.618,187.919 142.211,181.189L154.256,170.514C171.087,155.596 196.793,157.022 211.871,173.709Z" style="fill:url(#_Linear1);"/>
    <defs>
        <linearGradient id="_Linear1" x1="0" y1="0" x2="1" y2="0" gradientUnits="userSpaceOnUse" gradientTransform="matrix(45.976,232.612,-232.612,45.976,115.723,1.36333e-06)"><stop offset="0" style="stop-color:rgb(120,0,0);stop-opacity:1"/><stop offset="1" style="stop-color:rgb(193,18,31);stop-opacity:1"/></linearGradient>
    </defs>
</svg>
